<svg width="135" height="19" viewBox="0 0 135 19" fill="none" xmlns="http://www.w3.org/2000/svg">
<path d="M8.744 18.24C7.48 18.24 6.312 18.032 5.24 17.616C4.184 17.184 3.264 16.584 2.48 15.816C1.696 15.032 1.088 14.112 0.656 13.056C0.24 11.984 0.032 10.808 0.032 9.528C0.032 8.28 0.256 7.128 0.704 6.072C1.152 5.016 1.768 4.104 2.552 3.336C3.352 2.552 4.288 1.944 5.36 1.512C6.448 1.08 7.632 0.863999 8.912 0.863999C9.712 0.863999 10.496 0.967999 11.264 1.176C12.032 1.384 12.744 1.696 13.4 2.112C14.072 2.512 14.648 2.992 15.128 3.552L12.632 6.408C12.296 6.056 11.936 5.752 11.552 5.496C11.184 5.224 10.776 5.016 10.328 4.872C9.88 4.728 9.4 4.656 8.888 4.656C8.248 4.656 7.64 4.776 7.064 5.016C6.504 5.24 6.008 5.568 5.576 6C5.16 6.416 4.832 6.928 4.592 7.536C4.352 8.144 4.232 8.824 4.232 9.576C4.232 10.312 4.352 10.984 4.592 11.592C4.832 12.184 5.168 12.696 5.6 13.128C6.032 13.56 6.552 13.888 7.16 14.112C7.784 14.336 8.472 14.448 9.224 14.448C9.736 14.448 10.224 14.376 10.688 14.232C11.152 14.088 11.576 13.896 11.96 13.656C12.36 13.4 12.712 13.112 13.016 12.792L14.984 15.912C14.584 16.36 14.048 16.76 13.376 17.112C12.72 17.464 11.984 17.744 11.168 17.952C10.368 18.144 9.56 18.24 8.744 18.24ZM23.3681 18.24C22.0401 18.24 20.8561 17.952 19.8161 17.376C18.7921 16.8 17.9761 16.016 17.3681 15.024C16.7761 14.032 16.4801 12.896 16.4801 11.616C16.4801 10.336 16.7761 9.2 17.3681 8.208C17.9761 7.216 18.7921 6.432 19.8161 5.856C20.8561 5.28 22.0401 4.992 23.3681 4.992C24.6961 4.992 25.8721 5.28 26.8961 5.856C27.9361 6.432 28.7521 7.216 29.3441 8.208C29.9361 9.2 30.2321 10.336 30.2321 11.616C30.2321 12.896 29.9361 14.032 29.3441 15.024C28.7521 16.016 27.9361 16.8 26.8961 17.376C25.8721 17.952 24.6961 18.24 23.3681 18.24ZM23.3681 14.928C23.9441 14.928 24.4561 14.784 24.9041 14.496C25.3521 14.208 25.7041 13.816 25.9601 13.32C26.2161 12.824 26.3361 12.256 26.3201 11.616C26.3361 10.976 26.2161 10.408 25.9601 9.912C25.7041 9.4 25.3521 9 24.9041 8.712C24.4561 8.424 23.9441 8.28 23.3681 8.28C22.7921 8.28 22.2721 8.424 21.8081 8.712C21.3601 9 21.0081 9.4 20.7521 9.912C20.4961 10.408 20.3761 10.976 20.3921 11.616C20.3761 12.256 20.4961 12.824 20.7521 13.32C21.0081 13.816 21.3601 14.208 21.8081 14.496C22.2721 14.784 22.7921 14.928 23.3681 14.928ZM32.7431 18V5.256H36.3911L36.5111 7.848L35.7431 8.136C35.9191 7.56 36.2311 7.04 36.6791 6.576C37.1431 6.096 37.6951 5.712 38.3351 5.424C38.9751 5.136 39.6471 4.992 40.3511 4.992C41.3111 4.992 42.1191 5.192 42.7751 5.592C43.4311 5.976 43.9271 6.56 44.2631 7.344C44.5991 8.112 44.7671 9.056 44.7671 10.176V18H40.9031V10.488C40.9031 9.976 40.8311 9.552 40.6871 9.216C40.5431 8.88 40.3191 8.632 40.0151 8.472C39.7271 8.296 39.3671 8.216 38.9351 8.232C38.5991 8.232 38.2871 8.288 37.9991 8.4C37.7111 8.496 37.4631 8.648 37.2551 8.856C37.0471 9.048 36.8791 9.272 36.7511 9.528C36.6391 9.784 36.5831 10.064 36.5831 10.368V18H34.6871C34.2391 18 33.8551 18 33.5351 18C33.2151 18 32.9511 18 32.7431 18ZM49.0334 18V2.04H52.8734V18H49.0334ZM46.7774 8.616V5.256H55.3454V8.616H46.7774ZM62.1268 18.216C61.0548 18.216 60.0948 17.936 59.2467 17.376C58.4148 16.8 57.7508 16.016 57.2548 15.024C56.7588 14.016 56.5107 12.88 56.5107 11.616C56.5107 10.32 56.7588 9.176 57.2548 8.184C57.7508 7.192 58.4308 6.416 59.2948 5.856C60.1588 5.28 61.1428 4.992 62.2468 4.992C62.8548 4.992 63.4068 5.08 63.9028 5.256C64.4148 5.432 64.8628 5.68 65.2468 6C65.6308 6.304 65.9588 6.664 66.2308 7.08C66.5028 7.48 66.7028 7.912 66.8308 8.376L66.0388 8.28V5.256H69.8548V18H65.9668V14.928L66.8308 14.904C66.7028 15.352 66.4948 15.776 66.2068 16.176C65.9188 16.576 65.5668 16.928 65.1508 17.232C64.7348 17.536 64.2708 17.776 63.7588 17.952C63.2468 18.128 62.7028 18.216 62.1268 18.216ZM63.1828 14.976C63.7748 14.976 64.2868 14.84 64.7188 14.568C65.1508 14.296 65.4868 13.912 65.7268 13.416C65.9668 12.904 66.0868 12.304 66.0868 11.616C66.0868 10.928 65.9668 10.336 65.7268 9.84C65.4868 9.328 65.1508 8.936 64.7188 8.664C64.2868 8.376 63.7748 8.232 63.1828 8.232C62.6068 8.232 62.1028 8.376 61.6708 8.664C61.2548 8.936 60.9268 9.328 60.6868 9.84C60.4468 10.336 60.3268 10.928 60.3268 11.616C60.3268 12.304 60.4468 12.904 60.6868 13.416C60.9268 13.912 61.2548 14.296 61.6708 14.568C62.1028 14.84 62.6068 14.976 63.1828 14.976ZM78.8351 18.24C77.6031 18.24 76.4991 17.952 75.5231 17.376C74.5471 16.8 73.7711 16.016 73.1951 15.024C72.6351 14.016 72.3551 12.88 72.3551 11.616C72.3551 10.352 72.6351 9.224 73.1951 8.232C73.7711 7.224 74.5471 6.432 75.5231 5.856C76.4991 5.28 77.6031 4.992 78.8351 4.992C79.9711 4.992 81.0111 5.192 81.9551 5.592C82.9151 5.992 83.6751 6.552 84.2351 7.272L82.1471 9.768C81.9231 9.512 81.6591 9.272 81.3551 9.048C81.0511 8.824 80.7151 8.648 80.3471 8.52C79.9791 8.392 79.5951 8.328 79.1951 8.328C78.5871 8.328 78.0511 8.472 77.5871 8.76C77.1231 9.032 76.7631 9.416 76.5071 9.912C76.2511 10.408 76.1231 10.976 76.1231 11.616C76.1231 12.224 76.2511 12.776 76.5071 13.272C76.7791 13.768 77.1471 14.16 77.6111 14.448C78.0751 14.736 78.6031 14.88 79.1951 14.88C79.6111 14.88 79.9951 14.832 80.3471 14.736C80.6991 14.624 81.0191 14.464 81.3071 14.256C81.6111 14.048 81.8911 13.792 82.1471 13.488L84.2111 16.008C83.6671 16.696 82.9071 17.24 81.9311 17.64C80.9711 18.04 79.9391 18.24 78.8351 18.24ZM87.3772 18V2.04H91.2172V18H87.3772ZM85.1212 8.616V5.256H93.6892V8.616H85.1212Z" fill="white"/>
<path d="M96.2917 18V1.2H99.9397L106.06 11.16L103.444 11.136L109.636 1.2H113.14V18H109.18V12.768C109.18 11.328 109.212 10.032 109.276 8.88C109.356 7.728 109.484 6.584 109.66 5.448L110.116 6.696L105.46 13.92H103.876L99.3157 6.744L99.7717 5.448C99.9477 6.52 100.068 7.624 100.132 8.76C100.212 9.88 100.252 11.216 100.252 12.768V18H96.2917ZM123.026 18.24C121.618 18.24 120.394 17.96 119.354 17.4C118.314 16.824 117.506 16.048 116.93 15.072C116.354 14.08 116.066 12.952 116.066 11.688C116.066 10.712 116.226 9.816 116.546 9C116.866 8.184 117.314 7.48 117.89 6.888C118.466 6.28 119.146 5.816 119.93 5.496C120.73 5.16 121.602 4.992 122.546 4.992C123.442 4.992 124.258 5.152 124.994 5.472C125.746 5.792 126.394 6.24 126.938 6.816C127.482 7.392 127.898 8.072 128.186 8.856C128.474 9.64 128.602 10.496 128.57 11.424L128.546 12.456H118.394L117.842 10.296H125.426L125.018 10.752V10.272C124.986 9.872 124.858 9.52 124.634 9.216C124.426 8.896 124.146 8.648 123.794 8.472C123.442 8.296 123.042 8.208 122.594 8.208C121.97 8.208 121.434 8.336 120.986 8.592C120.554 8.832 120.226 9.192 120.002 9.672C119.778 10.136 119.666 10.712 119.666 11.4C119.666 12.104 119.81 12.72 120.098 13.248C120.402 13.76 120.834 14.16 121.394 14.448C121.97 14.736 122.65 14.88 123.434 14.88C123.978 14.88 124.458 14.8 124.874 14.64C125.306 14.48 125.77 14.208 126.266 13.824L128.066 16.368C127.57 16.8 127.042 17.152 126.482 17.424C125.922 17.696 125.346 17.896 124.754 18.024C124.178 18.168 123.602 18.24 123.026 18.24ZM132.385 18.264C131.729 18.264 131.217 18.08 130.849 17.712C130.497 17.344 130.321 16.816 130.321 16.128C130.321 15.488 130.513 14.968 130.896 14.568C131.281 14.168 131.777 13.968 132.385 13.968C133.041 13.968 133.553 14.16 133.921 14.544C134.289 14.912 134.473 15.44 134.473 16.128C134.473 16.752 134.281 17.264 133.897 17.664C133.513 18.064 133.009 18.264 132.385 18.264Z" fill="#EAB308"/>
</svg>
