<svg width="164" height="26" viewBox="0 0 164 26" fill="none" xmlns="http://www.w3.org/2000/svg">
<path d="M0.612 20V3.2H4.26L10.38 13.16L7.764 13.136L13.956 3.2H17.46V20H13.5V14.768C13.5 13.328 13.532 12.032 13.596 10.88C13.676 9.728 13.804 8.584 13.98 7.448L14.436 8.696L9.78 15.92H8.196L3.636 8.744L4.092 7.448C4.268 8.52 4.388 9.624 4.452 10.76C4.532 11.88 4.572 13.216 4.572 14.768V20H0.612ZM22.8823 25.52L25.7863 18.68L25.8343 20.648L19.6903 7.256H24.0343L26.7223 13.664C26.8663 13.984 27.0023 14.328 27.1303 14.696C27.2583 15.064 27.3543 15.416 27.4183 15.752L26.8903 16.064C26.9863 15.824 27.0903 15.528 27.2023 15.176C27.3303 14.808 27.4663 14.416 27.6103 14L29.9623 7.256H34.3303L28.9063 20L26.6983 25.52H22.8823Z" fill="white"/>
<path d="M36.5651 20V3.2H48.2771V6.68H40.5251V16.52H48.5171V20H36.5651ZM38.4851 13.112V9.8H47.1971V13.112H38.4851ZM56.3327 20.264C55.2287 20.264 54.2447 19.984 53.3807 19.424C52.5327 18.848 51.8607 18.064 51.3647 17.072C50.8687 16.064 50.6207 14.92 50.6207 13.64C50.6207 12.36 50.8687 11.224 51.3647 10.232C51.8607 9.224 52.5407 8.432 53.4047 7.856C54.2687 7.28 55.2607 6.992 56.3807 6.992C56.9567 6.992 57.5087 7.08 58.0367 7.256C58.5647 7.432 59.0447 7.672 59.4767 7.976C59.9087 8.28 60.2607 8.632 60.5327 9.032C60.8047 9.416 60.9647 9.816 61.0127 10.232L60.1007 10.448V2.24H63.9647V20H60.3887L60.1727 17.096L60.9407 17.216C60.8927 17.616 60.7327 18 60.4607 18.368C60.2047 18.736 59.8687 19.064 59.4527 19.352C59.0367 19.624 58.5567 19.84 58.0127 20C57.4847 20.176 56.9247 20.264 56.3327 20.264ZM57.3167 17.072C57.9087 17.072 58.4207 16.928 58.8527 16.64C59.2847 16.352 59.6127 15.952 59.8367 15.44C60.0767 14.928 60.1967 14.328 60.1967 13.64C60.1967 12.936 60.0767 12.328 59.8367 11.816C59.6127 11.304 59.2847 10.904 58.8527 10.616C58.4207 10.328 57.9087 10.184 57.3167 10.184C56.7247 10.184 56.2127 10.328 55.7807 10.616C55.3647 10.904 55.0367 11.304 54.7967 11.816C54.5567 12.328 54.4367 12.936 54.4367 13.64C54.4367 14.328 54.5567 14.928 54.7967 15.44C55.0367 15.952 55.3647 16.352 55.7807 16.64C56.2127 16.928 56.7247 17.072 57.3167 17.072ZM71.9308 20.264C70.9868 20.264 70.1788 20.064 69.5068 19.664C68.8508 19.248 68.3388 18.656 67.9708 17.888C67.6188 17.12 67.4428 16.2 67.4428 15.128V7.256H71.3068V14.6C71.3068 15.112 71.3868 15.552 71.5468 15.92C71.7068 16.288 71.9468 16.576 72.2668 16.784C72.5868 16.976 72.9708 17.072 73.4188 17.072C73.7548 17.072 74.0588 17.016 74.3308 16.904C74.6188 16.792 74.8588 16.64 75.0508 16.448C75.2588 16.24 75.4188 16.008 75.5308 15.752C75.6428 15.48 75.6988 15.184 75.6988 14.864V7.256H79.5628V20H75.9388L75.7708 17.384L76.4908 17.096C76.2988 17.704 75.9788 18.248 75.5308 18.728C75.0828 19.192 74.5468 19.568 73.9228 19.856C73.2988 20.128 72.6348 20.264 71.9308 20.264ZM88.5773 20.24C87.3453 20.24 86.2413 19.952 85.2653 19.376C84.2893 18.8 83.5133 18.016 82.9373 17.024C82.3773 16.016 82.0973 14.88 82.0973 13.616C82.0973 12.352 82.3773 11.224 82.9373 10.232C83.5133 9.224 84.2893 8.432 85.2653 7.856C86.2413 7.28 87.3453 6.992 88.5773 6.992C89.7133 6.992 90.7533 7.192 91.6973 7.592C92.6573 7.992 93.4173 8.552 93.9773 9.272L91.8893 11.768C91.6653 11.512 91.4013 11.272 91.0973 11.048C90.7933 10.824 90.4573 10.648 90.0893 10.52C89.7213 10.392 89.3373 10.328 88.9373 10.328C88.3293 10.328 87.7933 10.472 87.3293 10.76C86.8653 11.032 86.5053 11.416 86.2493 11.912C85.9933 12.408 85.8653 12.976 85.8653 13.616C85.8653 14.224 85.9933 14.776 86.2493 15.272C86.5213 15.768 86.8893 16.16 87.3533 16.448C87.8173 16.736 88.3453 16.88 88.9373 16.88C89.3533 16.88 89.7373 16.832 90.0893 16.736C90.4413 16.624 90.7613 16.464 91.0493 16.256C91.3533 16.048 91.6333 15.792 91.8893 15.488L93.9532 18.008C93.4093 18.696 92.6493 19.24 91.6733 19.64C90.7133 20.04 89.6813 20.24 88.5773 20.24ZM100.767 20.216C99.6954 20.216 98.7354 19.936 97.8874 19.376C97.0554 18.8 96.3914 18.016 95.8954 17.024C95.3994 16.016 95.1514 14.88 95.1514 13.616C95.1514 12.32 95.3994 11.176 95.8954 10.184C96.3914 9.192 97.0714 8.416 97.9354 7.856C98.7994 7.28 99.7834 6.992 100.887 6.992C101.495 6.992 102.047 7.08 102.543 7.256C103.055 7.432 103.503 7.68 103.887 8C104.271 8.304 104.599 8.664 104.871 9.08C105.143 9.48 105.343 9.912 105.471 10.376L104.679 10.28V7.256H108.495V20H104.607V16.928L105.471 16.904C105.343 17.352 105.135 17.776 104.847 18.176C104.559 18.576 104.207 18.928 103.791 19.232C103.375 19.536 102.911 19.776 102.399 19.952C101.887 20.128 101.343 20.216 100.767 20.216ZM101.823 16.976C102.415 16.976 102.927 16.84 103.359 16.568C103.791 16.296 104.127 15.912 104.367 15.416C104.607 14.904 104.727 14.304 104.727 13.616C104.727 12.928 104.607 12.336 104.367 11.84C104.127 11.328 103.791 10.936 103.359 10.664C102.927 10.376 102.415 10.232 101.823 10.232C101.247 10.232 100.743 10.376 100.311 10.664C99.8954 10.936 99.5674 11.328 99.3274 11.84C99.0874 12.336 98.9674 12.928 98.9674 13.616C98.9674 14.304 99.0874 14.904 99.3274 15.416C99.5674 15.912 99.8954 16.296 100.311 16.568C100.743 16.84 101.247 16.976 101.823 16.976ZM112.94 20V4.04H116.78V20H112.94ZM110.684 10.616V7.256H119.252V10.616H110.684ZM121.662 20V7.256H125.502V20H121.662ZM123.582 4.736C122.862 4.736 122.294 4.568 121.878 4.232C121.478 3.88 121.278 3.384 121.278 2.744C121.278 2.168 121.486 1.696 121.902 1.328C122.318 0.959999 122.878 0.775999 123.582 0.775999C124.302 0.775999 124.862 0.951999 125.262 1.304C125.662 1.64 125.862 2.12 125.862 2.744C125.862 3.336 125.654 3.816 125.238 4.184C124.838 4.552 124.286 4.736 123.582 4.736ZM135.11 20.24C133.782 20.24 132.598 19.952 131.558 19.376C130.534 18.8 129.718 18.016 129.11 17.024C128.518 16.032 128.222 14.896 128.222 13.616C128.222 12.336 128.518 11.2 129.11 10.208C129.718 9.216 130.534 8.432 131.558 7.856C132.598 7.28 133.782 6.992 135.11 6.992C136.438 6.992 137.614 7.28 138.638 7.856C139.678 8.432 140.494 9.216 141.086 10.208C141.678 11.2 141.974 12.336 141.974 13.616C141.974 14.896 141.678 16.032 141.086 17.024C140.494 18.016 139.678 18.8 138.638 19.376C137.614 19.952 136.438 20.24 135.11 20.24ZM135.11 16.928C135.686 16.928 136.198 16.784 136.646 16.496C137.094 16.208 137.446 15.816 137.702 15.32C137.958 14.824 138.078 14.256 138.062 13.616C138.078 12.976 137.958 12.408 137.702 11.912C137.446 11.4 137.094 11 136.646 10.712C136.198 10.424 135.686 10.28 135.11 10.28C134.534 10.28 134.014 10.424 133.55 10.712C133.102 11 132.75 11.4 132.494 11.912C132.238 12.408 132.118 12.976 132.134 13.616C132.118 14.256 132.238 14.824 132.494 15.32C132.75 15.816 133.102 16.208 133.55 16.496C134.014 16.784 134.534 16.928 135.11 16.928ZM144.485 20V7.256H148.133L148.253 9.848L147.485 10.136C147.661 9.56 147.973 9.04 148.421 8.576C148.885 8.096 149.437 7.712 150.077 7.424C150.717 7.136 151.389 6.992 152.093 6.992C153.053 6.992 153.861 7.192 154.517 7.592C155.173 7.976 155.669 8.56 156.005 9.344C156.341 10.112 156.509 11.056 156.509 12.176V20H152.645V12.488C152.645 11.976 152.573 11.552 152.429 11.216C152.285 10.88 152.061 10.632 151.757 10.472C151.469 10.296 151.109 10.216 150.677 10.232C150.341 10.232 150.029 10.288 149.741 10.4C149.453 10.496 149.205 10.648 148.997 10.856C148.789 11.048 148.621 11.272 148.493 11.528C148.381 11.784 148.325 12.064 148.325 12.368V20H146.429C145.981 20 145.597 20 145.277 20C144.957 20 144.693 20 144.485 20ZM161.088 20.264C160.432 20.264 159.92 20.08 159.552 19.712C159.2 19.344 159.024 18.816 159.024 18.128C159.024 17.488 159.216 16.968 159.6 16.568C159.984 16.168 160.48 15.968 161.088 15.968C161.744 15.968 162.256 16.16 162.624 16.544C162.992 16.912 163.176 17.44 163.176 18.128C163.176 18.752 162.984 19.264 162.6 19.664C162.216 20.064 161.712 20.264 161.088 20.264Z" fill="#EAB308"/>
</svg>
