<svg width="122" height="26" viewBox="0 0 122 26" fill="none" xmlns="http://www.w3.org/2000/svg">
<path d="M0.112 20V3.2H3.76L9.88 13.16L7.264 13.136L13.456 3.2H16.96V20H13V14.768C13 13.328 13.032 12.032 13.096 10.88C13.176 9.728 13.304 8.584 13.48 7.448L13.936 8.696L9.28 15.92H7.696L3.136 8.744L3.592 7.448C3.768 8.52 3.888 9.624 3.952 10.76C4.032 11.88 4.072 13.216 4.072 14.768V20H0.112ZM22.3823 25.52L25.2863 18.68L25.3343 20.648L19.1903 7.256H23.5343L26.2223 13.664C26.3663 13.984 26.5023 14.328 26.6303 14.696C26.7583 15.064 26.8543 15.416 26.9183 15.752L26.3903 16.064C26.4863 15.824 26.5903 15.528 26.7023 15.176C26.8303 14.808 26.9663 14.416 27.1103 14L29.4623 7.256H33.8303L28.4063 20L26.1983 25.52H22.3823Z" fill="white"/>
<path d="M36.0651 20V3.2H40.1451V20H36.0651ZM37.9611 13.568V10.16H46.6491V13.568H37.9611ZM37.9611 6.8V3.2H47.6331V6.8H37.9611ZM54.8455 20.216C53.7735 20.216 52.8135 19.936 51.9655 19.376C51.1335 18.8 50.4695 18.016 49.9735 17.024C49.4775 16.016 49.2295 14.88 49.2295 13.616C49.2295 12.32 49.4775 11.176 49.9735 10.184C50.4695 9.192 51.1495 8.416 52.0135 7.856C52.8775 7.28 53.8615 6.992 54.9655 6.992C55.5735 6.992 56.1255 7.08 56.6215 7.256C57.1335 7.432 57.5815 7.68 57.9655 8C58.3495 8.304 58.6775 8.664 58.9495 9.08C59.2215 9.48 59.4215 9.912 59.5495 10.376L58.7575 10.28V7.256H62.5735V20H58.6855V16.928L59.5495 16.904C59.4215 17.352 59.2135 17.776 58.9255 18.176C58.6375 18.576 58.2855 18.928 57.8695 19.232C57.4535 19.536 56.9895 19.776 56.4775 19.952C55.9655 20.128 55.4215 20.216 54.8455 20.216ZM55.9015 16.976C56.4935 16.976 57.0055 16.84 57.4375 16.568C57.8695 16.296 58.2055 15.912 58.4455 15.416C58.6855 14.904 58.8055 14.304 58.8055 13.616C58.8055 12.928 58.6855 12.336 58.4455 11.84C58.2055 11.328 57.8695 10.936 57.4375 10.664C57.0055 10.376 56.4935 10.232 55.9015 10.232C55.3255 10.232 54.8215 10.376 54.3895 10.664C53.9735 10.936 53.6455 11.328 53.4055 11.84C53.1655 12.336 53.0455 12.928 53.0455 13.616C53.0455 14.304 53.1655 14.904 53.4055 15.416C53.6455 15.912 53.9735 16.296 54.3895 16.568C54.8215 16.84 55.3255 16.976 55.9015 16.976ZM65.9378 20V7.256H69.5858L69.7058 9.56L69.2018 9.584C69.3938 9.168 69.6338 8.8 69.9218 8.48C70.2258 8.16 70.5618 7.896 70.9298 7.688C71.3138 7.464 71.7058 7.296 72.1058 7.184C72.5218 7.072 72.9378 7.016 73.3538 7.016C73.9778 7.016 74.5458 7.112 75.0578 7.304C75.5698 7.496 76.0178 7.808 76.4018 8.24C76.7858 8.656 77.0898 9.224 77.3138 9.944L76.7138 9.896L76.9058 9.512C77.1138 9.128 77.3778 8.784 77.6978 8.48C78.0338 8.16 78.4018 7.896 78.8018 7.688C79.2018 7.464 79.6178 7.296 80.0498 7.184C80.4818 7.072 80.8978 7.016 81.2978 7.016C82.3058 7.016 83.1458 7.216 83.8178 7.616C84.4898 8 84.9938 8.584 85.3298 9.368C85.6818 10.152 85.8578 11.104 85.8578 12.224V20H81.9938V12.536C81.9938 12.024 81.9218 11.6 81.7778 11.264C81.6338 10.928 81.4178 10.68 81.1298 10.52C80.8578 10.344 80.5138 10.256 80.0978 10.256C79.7618 10.256 79.4498 10.312 79.1618 10.424C78.8898 10.536 78.6498 10.688 78.4418 10.88C78.2498 11.072 78.0978 11.296 77.9858 11.552C77.8738 11.808 77.8178 12.096 77.8178 12.416V20H73.9538V12.512C73.9538 12.032 73.8818 11.624 73.7378 11.288C73.5938 10.952 73.3778 10.696 73.0898 10.52C72.8018 10.344 72.4658 10.256 72.0818 10.256C71.7458 10.256 71.4338 10.312 71.1458 10.424C70.8738 10.536 70.6338 10.688 70.4258 10.88C70.2338 11.072 70.0818 11.296 69.9698 11.552C69.8578 11.808 69.8018 12.088 69.8018 12.392V20H65.9378ZM89.2638 20V7.256H93.1038V20H89.2638ZM91.1838 4.736C90.4638 4.736 89.8958 4.568 89.4798 4.232C89.0798 3.88 88.8798 3.384 88.8798 2.744C88.8798 2.168 89.0878 1.696 89.5038 1.328C89.9198 0.959999 90.4798 0.775999 91.1838 0.775999C91.9038 0.775999 92.4638 0.951999 92.8638 1.304C93.2638 1.64 93.4638 2.12 93.4638 2.744C93.4638 3.336 93.2558 3.816 92.8398 4.184C92.4398 4.552 91.8878 4.736 91.1838 4.736ZM96.7358 20V2.24H100.576V20H96.7358ZM105.257 25.52L108.161 18.68L108.209 20.648L102.065 7.256H106.409L109.097 13.664C109.241 13.984 109.377 14.328 109.505 14.696C109.633 15.064 109.729 15.416 109.793 15.752L109.265 16.064C109.361 15.824 109.465 15.528 109.577 15.176C109.705 14.808 109.841 14.416 109.985 14L112.337 7.256H116.705L111.281 20L109.073 25.52H105.257ZM118.939 20.264C118.283 20.264 117.771 20.08 117.403 19.712C117.051 19.344 116.875 18.816 116.875 18.128C116.875 17.488 117.067 16.968 117.451 16.568C117.835 16.168 118.331 15.968 118.939 15.968C119.595 15.968 120.107 16.16 120.475 16.544C120.843 16.912 121.027 17.44 121.027 18.128C121.027 18.752 120.835 19.264 120.451 19.664C120.067 20.064 119.563 20.264 118.939 20.264Z" fill="#EAB308"/>
</svg>
