<svg width="114" height="19" viewBox="0 0 114 19" fill="none" xmlns="http://www.w3.org/2000/svg">
<path d="M0.476 18L7.124 1.2H10.58L17.18 18H13.052L9.884 9.48C9.756 9.144 9.628 8.784 9.5 8.4C9.372 8.016 9.244 7.624 9.116 7.224C8.988 6.808 8.86 6.408 8.732 6.024C8.62 5.624 8.524 5.256 8.444 4.92L9.164 4.896C9.068 5.296 8.956 5.688 8.828 6.072C8.716 6.456 8.596 6.84 8.468 7.224C8.356 7.592 8.228 7.968 8.084 8.352C7.94 8.72 7.804 9.104 7.676 9.504L4.508 18H0.476ZM3.644 14.784L4.916 11.712H12.644L13.892 14.784H3.644ZM26.5241 18.264C25.9481 18.264 25.3961 18.184 24.8681 18.024C24.3401 17.864 23.8601 17.648 23.4281 17.376C23.0121 17.104 22.6601 16.792 22.3721 16.44C22.1001 16.072 21.9161 15.696 21.8201 15.312L22.6601 15.024L22.4441 17.976H18.8681V0.24H22.7321V8.304L21.9401 8.016C22.0361 7.6 22.2201 7.216 22.4921 6.864C22.7641 6.496 23.1081 6.176 23.5241 5.904C23.9401 5.616 24.3961 5.392 24.8921 5.232C25.3881 5.072 25.9001 4.992 26.4281 4.992C27.5321 4.992 28.5081 5.28 29.3561 5.856C30.2201 6.416 30.9001 7.2 31.3961 8.208C31.8921 9.2 32.1401 10.336 32.1401 11.616C32.1401 12.912 31.8921 14.064 31.3961 15.072C30.9161 16.064 30.2521 16.848 29.4041 17.424C28.5561 17.984 27.5961 18.264 26.5241 18.264ZM25.5161 15.024C26.0921 15.024 26.5961 14.88 27.0281 14.592C27.4601 14.304 27.7881 13.912 28.0121 13.416C28.2521 12.904 28.3721 12.304 28.3721 11.616C28.3721 10.944 28.2521 10.352 28.0121 9.84C27.7881 9.328 27.4601 8.936 27.0281 8.664C26.5961 8.392 26.0921 8.256 25.5161 8.256C24.9241 8.256 24.4121 8.392 23.9801 8.664C23.5481 8.936 23.2121 9.328 22.9721 9.84C22.7321 10.352 22.6121 10.944 22.6121 11.616C22.6121 12.304 22.7321 12.904 22.9721 13.416C23.2121 13.912 23.5481 14.304 23.9801 14.592C24.4121 14.88 24.9241 15.024 25.5161 15.024ZM40.6649 18.24C39.3369 18.24 38.1529 17.952 37.1129 17.376C36.0889 16.8 35.2729 16.016 34.6649 15.024C34.0729 14.032 33.7769 12.896 33.7769 11.616C33.7769 10.336 34.0729 9.2 34.6649 8.208C35.2729 7.216 36.0889 6.432 37.1129 5.856C38.1529 5.28 39.3369 4.992 40.6649 4.992C41.9929 4.992 43.1689 5.28 44.1929 5.856C45.2329 6.432 46.0489 7.216 46.6409 8.208C47.2329 9.2 47.5289 10.336 47.5289 11.616C47.5289 12.896 47.2329 14.032 46.6409 15.024C46.0489 16.016 45.2329 16.8 44.1929 17.376C43.1689 17.952 41.9929 18.24 40.6649 18.24ZM40.6649 14.928C41.2409 14.928 41.7529 14.784 42.2009 14.496C42.6489 14.208 43.0009 13.816 43.2569 13.32C43.5129 12.824 43.6329 12.256 43.6169 11.616C43.6329 10.976 43.5129 10.408 43.2569 9.912C43.0009 9.4 42.6489 9 42.2009 8.712C41.7529 8.424 41.2409 8.28 40.6649 8.28C40.0889 8.28 39.5689 8.424 39.1049 8.712C38.6569 9 38.3049 9.4 38.0489 9.912C37.7929 10.408 37.6729 10.976 37.6889 11.616C37.6729 12.256 37.7929 12.824 38.0489 13.32C38.3049 13.816 38.6569 14.208 39.1049 14.496C39.5689 14.784 40.0889 14.928 40.6649 14.928ZM54.3839 18.264C53.4399 18.264 52.6319 18.064 51.9599 17.664C51.3039 17.248 50.7919 16.656 50.4239 15.888C50.0719 15.12 49.8959 14.2 49.8959 13.128V5.256H53.7599V12.6C53.7599 13.112 53.8399 13.552 53.9999 13.92C54.1599 14.288 54.3999 14.576 54.7199 14.784C55.0399 14.976 55.4239 15.072 55.8719 15.072C56.2079 15.072 56.5119 15.016 56.7839 14.904C57.0719 14.792 57.3119 14.64 57.5039 14.448C57.7119 14.24 57.8719 14.008 57.9839 13.752C58.0959 13.48 58.1519 13.184 58.1519 12.864V5.256H62.0159V18H58.3919L58.2239 15.384L58.9439 15.096C58.7519 15.704 58.4319 16.248 57.9839 16.728C57.5359 17.192 56.9999 17.568 56.3759 17.856C55.7519 18.128 55.0879 18.264 54.3839 18.264ZM66.4944 18V2.04H70.3344V18H66.4944ZM64.2384 8.616V5.256H72.8064V8.616H64.2384Z" fill="white"/>
<path d="M75.4089 18V1.2H79.0569L85.1769 11.16L82.5609 11.136L88.7529 1.2H92.2569V18H88.2969V12.768C88.2969 11.328 88.3289 10.032 88.3929 8.88C88.4729 7.728 88.6009 6.584 88.7769 5.448L89.2329 6.696L84.5769 13.92H82.9929L78.4329 6.744L78.8889 5.448C79.0649 6.52 79.1849 7.624 79.2489 8.76C79.3289 9.88 79.3689 11.216 79.3689 12.768V18H75.4089ZM102.143 18.24C100.735 18.24 99.5112 17.96 98.4712 17.4C97.4312 16.824 96.6232 16.048 96.0472 15.072C95.4712 14.08 95.1832 12.952 95.1832 11.688C95.1832 10.712 95.3432 9.816 95.6632 9C95.9832 8.184 96.4312 7.48 97.0072 6.888C97.5832 6.28 98.2632 5.816 99.0472 5.496C99.8472 5.16 100.719 4.992 101.663 4.992C102.559 4.992 103.375 5.152 104.111 5.472C104.863 5.792 105.511 6.24 106.055 6.816C106.599 7.392 107.015 8.072 107.303 8.856C107.591 9.64 107.719 10.496 107.687 11.424L107.663 12.456H97.5112L96.9592 10.296H104.543L104.135 10.752V10.272C104.103 9.872 103.975 9.52 103.751 9.216C103.543 8.896 103.263 8.648 102.911 8.472C102.559 8.296 102.159 8.208 101.711 8.208C101.087 8.208 100.551 8.336 100.103 8.592C99.6712 8.832 99.3432 9.192 99.1192 9.672C98.8952 10.136 98.7832 10.712 98.7832 11.4C98.7832 12.104 98.9272 12.72 99.2152 13.248C99.5192 13.76 99.9512 14.16 100.511 14.448C101.087 14.736 101.767 14.88 102.551 14.88C103.095 14.88 103.575 14.8 103.991 14.64C104.423 14.48 104.887 14.208 105.383 13.824L107.183 16.368C106.687 16.8 106.159 17.152 105.599 17.424C105.039 17.696 104.463 17.896 103.871 18.024C103.295 18.168 102.719 18.24 102.143 18.24ZM111.502 18.264C110.846 18.264 110.334 18.08 109.966 17.712C109.614 17.344 109.438 16.816 109.438 16.128C109.438 15.488 109.63 14.968 110.014 14.568C110.398 14.168 110.894 13.968 111.502 13.968C112.158 13.968 112.67 14.16 113.038 14.544C113.406 14.912 113.59 15.44 113.59 16.128C113.59 16.752 113.398 17.264 113.014 17.664C112.63 18.064 112.126 18.264 111.502 18.264Z" fill="#EAB308"/>
</svg>
