<svg width="139" height="26" viewBox="0 0 139 26" fill="none" xmlns="http://www.w3.org/2000/svg">
<path d="M0.612 20V3.2H4.26L10.38 13.16L7.764 13.136L13.956 3.2H17.46V20H13.5V14.768C13.5 13.328 13.532 12.032 13.596 10.88C13.676 9.728 13.804 8.584 13.98 7.448L14.436 8.696L9.78 15.92H8.196L3.636 8.744L4.092 7.448C4.268 8.52 4.388 9.624 4.452 10.76C4.532 11.88 4.572 13.216 4.572 14.768V20H0.612ZM22.8823 25.52L25.7863 18.68L25.8343 20.648L19.6903 7.256H24.0343L26.7223 13.664C26.8663 13.984 27.0023 14.328 27.1303 14.696C27.2583 15.064 27.3543 15.416 27.4183 15.752L26.8903 16.064C26.9863 15.824 27.0903 15.528 27.2023 15.176C27.3303 14.808 27.4663 14.416 27.6103 14L29.9623 7.256H34.3303L28.9063 20L26.6983 25.52H22.8823Z" fill="white"/>
<path d="M46.9811 20V3.2H51.0611V20H46.9811ZM36.5651 20V3.2H40.6451V20H36.5651ZM38.1491 13.448L38.1731 9.8H49.1411V13.448H38.1491ZM60.8603 20.24C59.5323 20.24 58.3483 19.952 57.3083 19.376C56.2843 18.8 55.4683 18.016 54.8603 17.024C54.2683 16.032 53.9723 14.896 53.9723 13.616C53.9723 12.336 54.2683 11.2 54.8603 10.208C55.4683 9.216 56.2843 8.432 57.3083 7.856C58.3483 7.28 59.5323 6.992 60.8603 6.992C62.1883 6.992 63.3643 7.28 64.3883 7.856C65.4283 8.432 66.2443 9.216 66.8363 10.208C67.4283 11.2 67.7243 12.336 67.7243 13.616C67.7243 14.896 67.4283 16.032 66.8363 17.024C66.2443 18.016 65.4283 18.8 64.3883 19.376C63.3643 19.952 62.1883 20.24 60.8603 20.24ZM60.8603 16.928C61.4363 16.928 61.9483 16.784 62.3963 16.496C62.8443 16.208 63.1963 15.816 63.4523 15.32C63.7083 14.824 63.8283 14.256 63.8123 13.616C63.8283 12.976 63.7083 12.408 63.4523 11.912C63.1963 11.4 62.8443 11 62.3963 10.712C61.9483 10.424 61.4363 10.28 60.8603 10.28C60.2843 10.28 59.7643 10.424 59.3003 10.712C58.8523 11 58.5003 11.4 58.2443 11.912C57.9883 12.408 57.8683 12.976 57.8843 13.616C57.8683 14.256 57.9883 14.824 58.2443 15.32C58.5003 15.816 58.8523 16.208 59.3003 16.496C59.7643 16.784 60.2843 16.928 60.8603 16.928ZM77.8913 20.264C77.3153 20.264 76.7633 20.184 76.2353 20.024C75.7073 19.864 75.2273 19.648 74.7953 19.376C74.3793 19.104 74.0273 18.792 73.7393 18.44C73.4673 18.072 73.2833 17.696 73.1873 17.312L74.0273 17.024L73.8113 19.976H70.2353V2.24H74.0993V10.304L73.3073 10.016C73.4033 9.6 73.5873 9.216 73.8593 8.864C74.1313 8.496 74.4753 8.176 74.8913 7.904C75.3073 7.616 75.7633 7.392 76.2593 7.232C76.7553 7.072 77.2673 6.992 77.7953 6.992C78.8993 6.992 79.8753 7.28 80.7233 7.856C81.5873 8.416 82.2673 9.2 82.7633 10.208C83.2593 11.2 83.5073 12.336 83.5073 13.616C83.5073 14.912 83.2593 16.064 82.7633 17.072C82.2833 18.064 81.6193 18.848 80.7713 19.424C79.9233 19.984 78.9633 20.264 77.8913 20.264ZM76.8833 17.024C77.4593 17.024 77.9633 16.88 78.3953 16.592C78.8273 16.304 79.1553 15.912 79.3793 15.416C79.6193 14.904 79.7393 14.304 79.7393 13.616C79.7393 12.944 79.6193 12.352 79.3793 11.84C79.1553 11.328 78.8273 10.936 78.3953 10.664C77.9633 10.392 77.4593 10.256 76.8833 10.256C76.2913 10.256 75.7793 10.392 75.3473 10.664C74.9153 10.936 74.5793 11.328 74.3393 11.84C74.0993 12.352 73.9793 12.944 73.9793 13.616C73.9793 14.304 74.0993 14.904 74.3393 15.416C74.5793 15.912 74.9153 16.304 75.3473 16.592C75.7793 16.88 76.2913 17.024 76.8833 17.024ZM93.6881 20.264C93.1121 20.264 92.5601 20.184 92.0321 20.024C91.5041 19.864 91.0241 19.648 90.5921 19.376C90.1761 19.104 89.8241 18.792 89.5361 18.44C89.2641 18.072 89.0801 17.696 88.9841 17.312L89.8241 17.024L89.6081 19.976H86.0321V2.24H89.8961V10.304L89.1041 10.016C89.2001 9.6 89.3841 9.216 89.6561 8.864C89.9281 8.496 90.2721 8.176 90.6881 7.904C91.1041 7.616 91.5601 7.392 92.0561 7.232C92.5521 7.072 93.0641 6.992 93.5921 6.992C94.6961 6.992 95.6721 7.28 96.5201 7.856C97.3841 8.416 98.0641 9.2 98.5601 10.208C99.0561 11.2 99.3041 12.336 99.3041 13.616C99.3041 14.912 99.0561 16.064 98.5601 17.072C98.0801 18.064 97.4161 18.848 96.5681 19.424C95.7201 19.984 94.7601 20.264 93.6881 20.264ZM92.6801 17.024C93.2561 17.024 93.7601 16.88 94.1921 16.592C94.6241 16.304 94.9521 15.912 95.1761 15.416C95.4161 14.904 95.5361 14.304 95.5361 13.616C95.5361 12.944 95.4161 12.352 95.1761 11.84C94.9521 11.328 94.6241 10.936 94.1921 10.664C93.7601 10.392 93.2561 10.256 92.6801 10.256C92.0881 10.256 91.5761 10.392 91.1441 10.664C90.7121 10.936 90.3761 11.328 90.1361 11.84C89.8961 12.352 89.7761 12.944 89.7761 13.616C89.7761 14.304 89.8961 14.904 90.1361 15.416C90.3761 15.912 90.7121 16.304 91.1441 16.592C91.5761 16.88 92.0881 17.024 92.6801 17.024ZM102.045 20V7.256H105.885V20H102.045ZM103.965 4.736C103.245 4.736 102.677 4.568 102.261 4.232C101.861 3.88 101.661 3.384 101.661 2.744C101.661 2.168 101.869 1.696 102.285 1.328C102.701 0.959999 103.261 0.775999 103.965 0.775999C104.685 0.775999 105.245 0.951999 105.645 1.304C106.045 1.64 106.245 2.12 106.245 2.744C106.245 3.336 106.037 3.816 105.621 4.184C105.221 4.552 104.669 4.736 103.965 4.736ZM115.565 20.24C114.157 20.24 112.933 19.96 111.893 19.4C110.853 18.824 110.045 18.048 109.469 17.072C108.893 16.08 108.605 14.952 108.605 13.688C108.605 12.712 108.765 11.816 109.085 11C109.405 10.184 109.853 9.48 110.429 8.888C111.005 8.28 111.685 7.816 112.469 7.496C113.269 7.16 114.141 6.992 115.085 6.992C115.981 6.992 116.797 7.152 117.533 7.472C118.285 7.792 118.933 8.24 119.477 8.816C120.021 9.392 120.437 10.072 120.725 10.856C121.013 11.64 121.141 12.496 121.109 13.424L121.085 14.456H110.933L110.381 12.296H117.965L117.557 12.752V12.272C117.525 11.872 117.397 11.52 117.173 11.216C116.965 10.896 116.685 10.648 116.333 10.472C115.981 10.296 115.581 10.208 115.133 10.208C114.509 10.208 113.973 10.336 113.525 10.592C113.093 10.832 112.765 11.192 112.541 11.672C112.317 12.136 112.205 12.712 112.205 13.4C112.205 14.104 112.349 14.72 112.637 15.248C112.941 15.76 113.373 16.16 113.933 16.448C114.509 16.736 115.189 16.88 115.973 16.88C116.517 16.88 116.997 16.8 117.413 16.64C117.845 16.48 118.309 16.208 118.805 15.824L120.605 18.368C120.109 18.8 119.581 19.152 119.021 19.424C118.461 19.696 117.885 19.896 117.293 20.024C116.717 20.168 116.141 20.24 115.565 20.24ZM127.852 20.24C126.604 20.24 125.5 20.04 124.54 19.64C123.596 19.24 122.844 18.704 122.284 18.032L124.612 16.016C125.108 16.512 125.668 16.88 126.292 17.12C126.916 17.344 127.508 17.456 128.068 17.456C128.292 17.456 128.492 17.432 128.668 17.384C128.844 17.336 128.988 17.272 129.1 17.192C129.228 17.096 129.324 16.992 129.388 16.88C129.452 16.752 129.484 16.608 129.484 16.448C129.484 16.128 129.34 15.88 129.052 15.704C128.908 15.624 128.668 15.528 128.332 15.416C127.996 15.304 127.564 15.176 127.036 15.032C126.284 14.84 125.628 14.616 125.068 14.36C124.524 14.088 124.076 13.776 123.724 13.424C123.404 13.088 123.156 12.72 122.98 12.32C122.804 11.904 122.716 11.44 122.716 10.928C122.716 10.336 122.852 9.8 123.124 9.32C123.412 8.84 123.788 8.424 124.252 8.072C124.732 7.72 125.276 7.456 125.884 7.28C126.508 7.088 127.148 6.992 127.804 6.992C128.508 6.992 129.18 7.072 129.82 7.232C130.46 7.392 131.052 7.616 131.596 7.904C132.156 8.192 132.652 8.536 133.084 8.936L131.068 11.192C130.78 10.92 130.452 10.68 130.084 10.472C129.732 10.248 129.364 10.072 128.98 9.944C128.596 9.816 128.244 9.752 127.924 9.752C127.684 9.752 127.468 9.776 127.276 9.824C127.1 9.856 126.948 9.92 126.82 10.016C126.692 10.096 126.596 10.2 126.532 10.328C126.468 10.44 126.436 10.576 126.436 10.736C126.436 10.896 126.476 11.048 126.556 11.192C126.652 11.336 126.78 11.456 126.94 11.552C127.1 11.648 127.356 11.76 127.708 11.888C128.06 12 128.54 12.144 129.148 12.32C129.9 12.528 130.548 12.76 131.092 13.016C131.636 13.272 132.068 13.576 132.388 13.928C132.644 14.2 132.836 14.52 132.964 14.888C133.092 15.24 133.156 15.624 133.156 16.04C133.156 16.856 132.924 17.584 132.46 18.224C132.012 18.848 131.388 19.344 130.588 19.712C129.788 20.064 128.876 20.24 127.852 20.24ZM136.806 20.264C136.15 20.264 135.638 20.08 135.27 19.712C134.918 19.344 134.742 18.816 134.742 18.128C134.742 17.488 134.934 16.968 135.318 16.568C135.702 16.168 136.198 15.968 136.806 15.968C137.462 15.968 137.974 16.16 138.342 16.544C138.71 16.912 138.894 17.44 138.894 18.128C138.894 18.752 138.702 19.264 138.318 19.664C137.934 20.064 137.43 20.264 136.806 20.264Z" fill="#EAB308"/>
</svg>
